<svg width="105" height="101" viewBox="0 0 105 101" fill="none" xmlns="http://www.w3.org/2000/svg">
<path d="M33.6308 5.4661C35.846 3.75755 38.7468 2.95172 41.7191 3.47194L93.4926 12.5706C99.0895 13.5549 102.829 18.8744 101.842 24.4591L92.715 76.0726C92.2546 78.6889 90.8323 80.8973 88.8832 82.4018" stroke="black" stroke-width="6" stroke-miterlimit="10"/>
<path d="M76.6136 25.8363L24.8407 16.7356C19.2423 15.7515 13.9035 19.4781 12.9164 25.0593L3.78742 76.6722C2.80025 82.2534 6.53846 87.5756 12.1369 88.5597L63.9098 97.6604C69.5083 98.6446 74.847 94.9179 75.8342 89.3367L84.9632 37.7238C85.9503 32.1426 82.2121 26.8204 76.6136 25.8363Z" stroke="black" stroke-width="6" stroke-miterlimit="10"/>
<path d="M17.2597 18.3593L33.6308 5.4661" stroke="black" stroke-width="6" stroke-miterlimit="10"/>
<path d="M71.228 96.1824L88.8832 82.4069" stroke="black" stroke-width="6" stroke-miterlimit="10"/>
<path d="M53.1444 48.3905C53.5757 48.8744 53.5493 49.6092 53.074 50.0483L51.4368 51.5718L53.0036 51.6435C53.6461 51.6704 54.139 52.217 54.1038 52.8712C54.0686 53.5254 53.5405 54.0272 52.8979 53.9914L49.0251 53.8211L46.3142 56.3572L49.8261 57.4863L53.2676 55.6671C53.8309 55.3625 54.5351 55.5955 54.8255 56.169C55.116 56.7425 54.8959 57.4594 54.3326 57.7552L52.9508 58.49L54.9136 59.1263C55.5209 59.3234 55.8642 59.9865 55.6705 60.6049C55.4769 61.2232 54.8255 61.5727 54.2182 61.3756L52.2554 60.7393L52.9772 62.1552C53.2764 62.7287 53.0476 63.4457 52.4843 63.7414C51.9209 64.0371 51.2168 63.8131 50.9263 63.2395L49.1396 59.7356L45.6276 58.6065L46.4286 62.2627L49.7029 64.3866C50.2398 64.7361 50.3982 65.462 50.055 66.0086C49.7117 66.5553 48.9987 66.7166 48.4618 66.3671L47.1415 65.5157L47.5905 67.5679C47.7313 68.2042 47.3352 68.8315 46.7103 68.9748C46.0853 69.1182 45.4692 68.715 45.3284 68.0787L44.8795 66.0265L44.0345 67.3708C43.6912 67.9174 42.9783 68.0787 42.4414 67.7292C41.9045 67.3797 41.746 66.6538 42.0893 66.1072L44.1753 62.7735L43.3832 59.1173L40.6722 61.6534L40.505 65.5964C40.4786 66.2506 39.9417 66.7524 39.2991 66.7166C38.6566 66.6807 38.1637 66.143 38.1989 65.4889L38.2693 63.8937L36.641 65.4172C36.1657 65.8563 35.4439 65.8294 35.0127 65.3455C34.5814 64.8616 34.6078 64.1267 35.0831 63.6876L36.7202 62.1642L35.1535 62.0925C34.5109 62.0656 34.018 61.5189 34.0533 60.8648C34.0885 60.2106 34.6166 59.7087 35.2591 59.7446L39.1319 59.9149L41.8429 57.3877L38.3309 56.2586L34.8894 58.0778C34.3261 58.3825 33.622 58.1495 33.3315 57.5759C33.041 57.0024 33.2611 56.2855 33.8244 55.9898L35.2063 55.246L33.2435 54.6097C32.6362 54.4125 32.2929 53.7494 32.4865 53.1311C32.6802 52.5127 33.3315 52.1632 33.9388 52.3604L35.9016 52.9967L35.1799 51.5807C34.8806 51.0072 35.1095 50.2903 35.6728 49.9946C36.2361 49.6989 36.9403 49.9229 37.2307 50.4964L39.0175 54.0003L42.5294 55.1295L41.7284 51.4732L38.4542 49.3494C37.9173 48.9999 37.7588 48.274 38.1021 47.7273C38.4454 47.1807 39.1583 47.0194 39.6952 47.3689L41.0155 48.2292L40.5666 46.177C40.4258 45.5408 40.8218 44.9135 41.4468 44.7701C42.0717 44.6267 42.6878 45.03 42.8287 45.6662L43.2776 47.7184L44.1225 46.3742C44.4658 45.8275 45.1787 45.6662 45.7157 46.0157C46.2526 46.3652 46.411 47.0911 46.0677 47.6377L43.9817 50.9714L44.7739 54.6276L47.4848 52.0915L47.6521 48.1485C47.6785 47.4943 48.2154 46.9925 48.8579 47.0283C49.5004 47.0642 49.9933 47.6019 49.9581 48.2561L49.8877 49.8512L51.5249 48.3278C52.0002 47.8886 52.7219 47.9155 53.1532 48.3994L53.1444 48.3905Z" fill="black"/>
</svg>
