<svg width="104" height="101" viewBox="0 0 104 101" fill="none" xmlns="http://www.w3.org/2000/svg">
<path d="M32.6308 5.15058C34.846 3.44203 37.7468 2.6362 40.7191 3.15642L92.4926 12.2551C98.0895 13.2394 101.829 18.5589 100.842 24.1435L91.715 75.757C91.2546 78.3734 89.8323 80.5818 87.8832 82.0863" stroke="black" stroke-width="5" stroke-miterlimit="10"/>
<path d="M75.6136 25.5208L23.8407 16.42C18.2423 15.4359 12.9035 19.1626 11.9164 24.7438L2.78742 76.3567C1.80026 81.9378 5.53846 87.2601 11.1369 88.2442L62.9099 97.3449C68.5083 98.329 73.847 94.6024 74.8342 89.0212L83.9632 37.4083C84.9503 31.8271 81.2121 26.5049 75.6136 25.5208Z" stroke="black" stroke-width="5" stroke-miterlimit="10"/>
<path d="M16.2597 18.0438L32.6308 5.15058" stroke="black" stroke-width="5" stroke-miterlimit="10"/>
<path d="M70.228 95.8669L87.8832 82.0914" stroke="black" stroke-width="5" stroke-miterlimit="10"/>
<path d="M51.71 48.6413C52.1413 49.1242 52.1149 49.8574 51.6396 50.2956L50.0026 51.8156L51.5692 51.8872C52.2117 51.914 52.7045 52.4595 52.6693 53.1122C52.6341 53.7649 52.1061 54.2657 51.4636 54.2299L47.5912 54.06L44.8805 56.5905L48.392 57.7172L51.8332 55.902C52.3965 55.598 53.1006 55.8305 53.391 56.4027C53.6815 56.975 53.4614 57.6903 52.8982 57.9854L51.5164 58.7186L53.479 59.3535C54.0863 59.5502 54.4295 60.2119 54.2359 60.8289C54.0423 61.4459 53.391 61.7946 52.7837 61.5979L50.8211 60.963L51.5428 62.3758C51.842 62.9481 51.6132 63.6634 51.05 63.9585C50.4867 64.2536 49.7826 64.03 49.4922 63.4578L47.7056 59.9615L44.194 58.8349L44.9949 62.4831L48.2688 64.6023C48.8057 64.951 48.9641 65.6753 48.6209 66.2207C48.2776 66.7662 47.5648 66.9271 47.0279 66.5784L45.7077 65.7289L46.1566 67.7766C46.2974 68.4115 45.9014 69.0374 45.2765 69.1804C44.6516 69.3235 44.0356 68.9211 43.8947 68.2863L43.4459 66.2386L42.601 67.5799C42.2578 68.1253 41.5449 68.2863 41.008 67.9375C40.4712 67.5888 40.3127 66.8645 40.656 66.3191L42.7418 62.9928L41.9497 59.3446L39.239 61.8751L39.0718 65.8094C39.0454 66.4622 38.5085 66.9629 37.8661 66.9271C37.2236 66.8914 36.7307 66.3549 36.7659 65.7021L36.8363 64.1105L35.2082 65.6306C34.7329 66.0687 34.0112 66.0419 33.58 65.5591C33.1487 65.0762 33.1751 64.343 33.6504 63.9048L35.2874 62.3847L33.7208 62.3132C33.0783 62.2864 32.5855 61.7409 32.6207 61.0882C32.6559 60.4355 33.1839 59.9347 33.8264 59.9705L37.6988 60.1404L40.4096 57.6188L36.898 56.4922L33.4568 58.3073C32.8935 58.6113 32.1894 58.3789 31.899 57.8066C31.6086 57.2343 31.8286 56.519 32.3918 56.2239L33.7736 55.4817L31.811 54.8469C31.2037 54.6502 30.8605 53.9885 31.0541 53.3715C31.2477 52.7545 31.899 52.4058 32.5063 52.6025L34.4689 53.2374L33.7472 51.8246C33.448 51.2523 33.6768 50.537 34.24 50.2419C34.8033 49.9468 35.5074 50.1704 35.7978 50.7426L37.5844 54.2388L41.096 55.3655L40.2951 51.7173L37.0212 49.5981C36.4843 49.2494 36.3259 48.5251 36.6691 47.9797C37.0124 47.4342 37.7252 47.2733 38.2621 47.622L39.5823 48.4804L39.1334 46.4327C38.9926 45.7979 39.3886 45.172 40.0135 45.0289C40.6384 44.8858 41.2544 45.2882 41.3953 45.9231L41.8441 47.9707L42.689 46.6295C43.0322 46.084 43.7451 45.9231 44.282 46.2718C44.8188 46.6205 44.9773 47.3448 44.634 47.8902L42.5482 51.2166L43.3403 54.8648L46.051 52.3343L46.2182 48.3999C46.2446 47.7472 46.7815 47.2464 47.4239 47.2822C48.0664 47.318 48.5593 47.8545 48.5241 48.5072L48.4537 50.0988L50.0906 48.5787C50.5659 48.1406 51.2876 48.1674 51.7188 48.6503L51.71 48.6413Z" fill="black"/>
</svg>
