<svg width="102" height="99" viewBox="0 0 102 99" fill="none" xmlns="http://www.w3.org/2000/svg">
<path d="M31.6308 4.4661C33.846 2.75755 36.7468 1.95172 39.7191 2.47194L91.4926 11.5706C97.0895 12.5549 100.829 17.8744 99.8419 23.4591L90.715 75.0726C90.2546 77.6889 88.8323 79.8973 86.8832 81.4018" stroke="black" stroke-width="3" stroke-miterlimit="10"/>
<path d="M74.6136 24.8363L22.8407 15.7356C17.2423 14.7515 11.9035 18.4781 10.9164 24.0593L1.78742 75.6722C0.800259 81.2534 4.53846 86.5756 10.1369 87.5597L61.9099 96.6604C67.5083 97.6446 72.847 93.9179 73.8342 88.3367L82.9632 36.7238C83.9503 31.1426 80.2121 25.8204 74.6136 24.8363Z" stroke="black" stroke-width="3" stroke-miterlimit="10"/>
<path d="M15.2597 17.3593L31.6308 4.4661" stroke="black" stroke-width="3" stroke-miterlimit="10"/>
<path d="M69.228 95.1824L86.8831 81.4069" stroke="black" stroke-width="3" stroke-miterlimit="10"/>
<path d="M51.1444 47.3905C51.5757 47.8744 51.5493 48.6092 51.074 49.0483L49.4368 50.5718L51.0036 50.6435C51.6461 50.6704 52.139 51.217 52.1038 51.8712C52.0686 52.5254 51.5405 53.0272 50.8979 52.9914L47.0251 52.8211L44.3142 55.3572L47.8261 56.4863L51.2676 54.6671C51.8309 54.3625 52.5351 54.5955 52.8255 55.169C53.116 55.7425 52.8959 56.4594 52.3326 56.7552L50.9508 57.49L52.9136 58.1263C53.5209 58.3234 53.8642 58.9865 53.6705 59.6049C53.4769 60.2232 52.8255 60.5727 52.2182 60.3756L50.2554 59.7393L50.9772 61.1552C51.2764 61.7287 51.0476 62.4457 50.4843 62.7414C49.9209 63.0371 49.2168 62.8131 48.9263 62.2395L47.1396 58.7356L43.6276 57.6065L44.4286 61.2627L47.7029 63.3866C48.2398 63.7361 48.3982 64.462 48.055 65.0086C47.7117 65.5553 46.9987 65.7166 46.4618 65.3671L45.1415 64.5157L45.5905 66.5679C45.7313 67.2042 45.3352 67.8315 44.7103 67.9748C44.0853 68.1182 43.4692 67.715 43.3284 67.0787L42.8795 65.0265L42.0345 66.3708C41.6912 66.9174 40.9783 67.0787 40.4414 66.7292C39.9045 66.3797 39.746 65.6538 40.0893 65.1072L42.1753 61.7735L41.3832 58.1173L38.6722 60.6534L38.505 64.5964C38.4786 65.2506 37.9417 65.7524 37.2991 65.7166C36.6566 65.6807 36.1637 65.143 36.1989 64.4889L36.2693 62.8937L34.641 64.4172C34.1657 64.8563 33.4439 64.8294 33.0127 64.3455C32.5814 63.8616 32.6078 63.1267 33.0831 62.6876L34.7202 61.1642L33.1535 61.0925C32.5109 61.0656 32.018 60.5189 32.0533 59.8648C32.0885 59.2106 32.6166 58.7087 33.2591 58.7446L37.1319 58.9149L39.8429 56.3877L36.3309 55.2586L32.8894 57.0778C32.3261 57.3825 31.622 57.1495 31.3315 56.5759C31.041 56.0024 31.2611 55.2855 31.8244 54.9898L33.2063 54.246L31.2435 53.6097C30.6362 53.4125 30.2929 52.7494 30.4865 52.1311C30.6802 51.5127 31.3315 51.1632 31.9388 51.3604L33.9016 51.9967L33.1799 50.5807C32.8806 50.0072 33.1095 49.2903 33.6728 48.9946C34.2361 48.6989 34.9403 48.9229 35.2307 49.4964L37.0175 53.0003L40.5294 54.1295L39.7284 50.4732L36.4542 48.3494C35.9173 47.9999 35.7588 47.274 36.1021 46.7273C36.4454 46.1807 37.1583 46.0194 37.6952 46.3689L39.0155 47.2292L38.5666 45.177C38.4258 44.5408 38.8218 43.9135 39.4468 43.7701C40.0717 43.6267 40.6878 44.03 40.8287 44.6662L41.2776 46.7184L42.1225 45.3742C42.4658 44.8275 43.1787 44.6662 43.7157 45.0157C44.2526 45.3652 44.411 46.0911 44.0677 46.6377L41.9817 49.9714L42.7739 53.6276L45.4848 51.0915L45.6521 47.1485C45.6785 46.4943 46.2154 45.9925 46.8579 46.0283C47.5004 46.0642 47.9933 46.6019 47.9581 47.2561L47.8877 48.8512L49.5249 47.3278C50.0002 46.8886 50.7219 46.9155 51.1532 47.3994L51.1444 47.3905Z" fill="black"/>
</svg>
