<svg width="103" height="99" viewBox="0 0 103 99" fill="none" xmlns="http://www.w3.org/2000/svg">
<path d="M32.6308 4.4661C34.846 2.75755 37.7468 1.95172 40.7191 2.47194L92.4926 11.5706C98.0895 12.5549 101.829 17.8744 100.842 23.4591L91.715 75.0726C91.2546 77.6889 89.8323 79.8973 87.8832 81.4018" stroke="black" stroke-width="4" stroke-miterlimit="10"/>
<path d="M75.6136 24.8363L23.8407 15.7356C18.2423 14.7515 12.9035 18.4781 11.9164 24.0593L2.78742 75.6722C1.80026 81.2534 5.53846 86.5756 11.1369 87.5597L62.9099 96.6604C68.5083 97.6446 73.847 93.9179 74.8342 88.3367L83.9632 36.7238C84.9503 31.1426 81.2121 25.8204 75.6136 24.8363Z" stroke="black" stroke-width="4" stroke-miterlimit="10"/>
<path d="M16.2597 17.3593L32.6308 4.4661" stroke="black" stroke-width="4" stroke-miterlimit="10"/>
<path d="M70.228 95.1824L87.8832 81.4069" stroke="black" stroke-width="4" stroke-miterlimit="10"/>
<path d="M52.1444 47.3905C52.5757 47.8744 52.5493 48.6092 52.074 49.0483L50.4368 50.5718L52.0036 50.6435C52.6461 50.6704 53.139 51.217 53.1038 51.8712C53.0686 52.5254 52.5405 53.0272 51.8979 52.9914L48.0251 52.8211L45.3142 55.3572L48.8261 56.4863L52.2676 54.6671C52.8309 54.3625 53.5351 54.5955 53.8255 55.169C54.116 55.7425 53.8959 56.4594 53.3326 56.7552L51.9508 57.49L53.9136 58.1263C54.5209 58.3234 54.8642 58.9865 54.6705 59.6049C54.4769 60.2232 53.8255 60.5727 53.2182 60.3756L51.2554 59.7393L51.9772 61.1552C52.2764 61.7287 52.0476 62.4457 51.4843 62.7414C50.9209 63.0371 50.2168 62.8131 49.9263 62.2395L48.1396 58.7356L44.6276 57.6065L45.4286 61.2627L48.7029 63.3866C49.2398 63.7361 49.3982 64.462 49.055 65.0086C48.7117 65.5553 47.9987 65.7166 47.4618 65.3671L46.1415 64.5157L46.5905 66.5679C46.7313 67.2042 46.3352 67.8315 45.7103 67.9748C45.0853 68.1182 44.4692 67.715 44.3284 67.0787L43.8795 65.0265L43.0345 66.3708C42.6912 66.9174 41.9783 67.0787 41.4414 66.7292C40.9045 66.3797 40.746 65.6538 41.0893 65.1072L43.1753 61.7735L42.3832 58.1173L39.6722 60.6534L39.505 64.5964C39.4786 65.2506 38.9417 65.7524 38.2991 65.7166C37.6566 65.6807 37.1637 65.143 37.1989 64.4889L37.2693 62.8937L35.641 64.4172C35.1657 64.8563 34.4439 64.8294 34.0127 64.3455C33.5814 63.8616 33.6078 63.1267 34.0831 62.6876L35.7202 61.1642L34.1535 61.0925C33.5109 61.0656 33.018 60.5189 33.0533 59.8648C33.0885 59.2106 33.6166 58.7087 34.2591 58.7446L38.1319 58.9149L40.8429 56.3877L37.3309 55.2586L33.8894 57.0778C33.3261 57.3825 32.622 57.1495 32.3315 56.5759C32.041 56.0024 32.2611 55.2855 32.8244 54.9898L34.2063 54.246L32.2435 53.6097C31.6362 53.4125 31.2929 52.7494 31.4865 52.1311C31.6802 51.5127 32.3315 51.1632 32.9388 51.3604L34.9016 51.9967L34.1799 50.5807C33.8806 50.0072 34.1095 49.2903 34.6728 48.9946C35.2361 48.6989 35.9403 48.9229 36.2307 49.4964L38.0175 53.0003L41.5294 54.1295L40.7284 50.4732L37.4542 48.3494C36.9173 47.9999 36.7588 47.274 37.1021 46.7273C37.4454 46.1807 38.1583 46.0194 38.6952 46.3689L40.0155 47.2292L39.5666 45.177C39.4258 44.5408 39.8218 43.9135 40.4468 43.7701C41.0717 43.6267 41.6878 44.03 41.8287 44.6662L42.2776 46.7184L43.1225 45.3742C43.4658 44.8275 44.1787 44.6662 44.7157 45.0157C45.2526 45.3652 45.411 46.0911 45.0677 46.6377L42.9817 49.9714L43.7739 53.6276L46.4848 51.0915L46.6521 47.1485C46.6785 46.4943 47.2154 45.9925 47.8579 46.0283C48.5004 46.0642 48.9933 46.6019 48.9581 47.2561L48.8877 48.8512L50.5249 47.3278C51.0002 46.8886 51.7219 46.9155 52.1532 47.3994L52.1444 47.3905Z" fill="black"/>
</svg>
